<svg width="66" height="70" viewBox="0 0 66 70" fill="none" xmlns="http://www.w3.org/2000/svg">
<path d="M66 10.9375C66 4.89689 61.3829 0 55.6875 0H10.3125C4.61706 0 0 4.89689 0 10.9375V59.0625C0 65.1031 4.61706 70 10.3125 70H55.6875C61.3829 70 66 65.1031 66 59.0625V10.9375Z" fill="black"/>
<path d="M32.9657 35.0001C32.9657 31.7785 35.4281 29.1667 38.4657 29.1667C41.5032 29.1667 43.9657 31.7785 43.9657 35.0001C43.9657 38.2218 41.5032 40.8334 38.4657 40.8334C35.4281 40.8334 32.9657 38.2218 32.9657 35.0001Z" fill="#1ABCFE"/>
<path d="M21.9657 46.6666C21.9657 43.445 24.4281 40.8333 27.4657 40.8333H32.9657V46.6666C32.9657 49.8883 30.5033 52.4999 27.4657 52.4999C24.4281 52.4999 21.9657 49.8883 21.9657 46.6666Z" fill="#0ACF83"/>
<path d="M32.9657 17.5V29.1666H38.4657C41.5033 29.1666 43.9657 26.555 43.9657 23.3333C43.9657 20.1117 41.5033 17.5 38.4657 17.5H32.9657Z" fill="#FF7262"/>
<path d="M21.9657 23.3333C21.9657 26.555 24.4281 29.1666 27.4657 29.1666H32.9657V17.5H27.4657C24.4281 17.5 21.9657 20.1117 21.9657 23.3333Z" fill="#F24E1E"/>
<path d="M21.9657 35.0001C21.9657 38.2218 24.4281 40.8334 27.4657 40.8334H32.9657V29.1667H27.4657C24.4281 29.1667 21.9657 31.7785 21.9657 35.0001Z" fill="#A259FF"/>
</svg>
