<svg width="66" height="70" viewBox="0 0 66 70" fill="none" xmlns="http://www.w3.org/2000/svg">
<path d="M55.6875 0H10.3125C4.61706 0 0 4.89689 0 10.9375V59.0625C0 65.1031 4.61706 70 10.3125 70H55.6875C61.3829 70 66 65.1031 66 59.0625V10.9375C66 4.89689 61.3829 0 55.6875 0Z" fill="#231E1B"/>
<path fill-rule="evenodd" clip-rule="evenodd" d="M32.9495 17.9199C23.867 17.9199 16.5 25.7334 16.5 35.3664C16.5 43.0728 21.2431 49.6019 27.7018 51.9566C28.5092 52.0637 28.8119 51.5285 28.8119 51.1004C28.8119 50.6722 28.8119 49.6019 28.8119 48.1034C24.2706 49.1737 23.2615 45.7487 23.2615 45.7487C22.555 43.715 21.445 43.1799 21.445 43.1799C19.9312 42.1095 21.5459 42.1095 21.5459 42.1095C23.1606 42.2166 24.0688 43.9291 24.0688 43.9291C25.5826 46.6049 27.9037 45.8557 28.8119 45.4276C28.9128 44.2502 29.4174 43.501 29.8211 43.0728C26.1881 42.6447 22.3532 41.1462 22.3532 34.4031C22.3532 32.4765 22.9587 30.978 24.0688 29.6936C23.9679 29.3725 23.3624 27.5529 24.2706 25.1982C24.2706 25.1982 25.6835 24.7701 28.8119 27.0178C30.1239 26.5896 31.5367 26.4826 32.9495 26.4826C34.3624 26.4826 35.7752 26.6967 37.0872 27.0178C40.2156 24.7701 41.6284 25.1982 41.6284 25.1982C42.5367 27.5529 41.9312 29.3725 41.8303 29.8007C42.8395 30.978 43.5459 32.5835 43.5459 34.5101C43.5459 41.2533 39.711 42.6447 36.078 43.0728C36.6835 43.608 37.1881 44.6783 37.1881 46.2838C37.1881 48.6386 37.1881 50.4581 37.1881 51.1004C37.1881 51.5285 37.4908 52.0637 38.2982 51.9566C44.8578 49.6019 49.5 43.0728 49.5 35.3664C49.3991 25.7334 42.0321 17.9199 32.9495 17.9199Z" fill="white"/>
</svg>
