<svg width="66" height="70" viewBox="0 0 66 70" fill="none" xmlns="http://www.w3.org/2000/svg">
<path d="M55.6875 0H10.3125C4.61706 0 0 4.89689 0 10.9375V59.0625C0 65.1031 4.61706 70 10.3125 70H55.6875C61.3829 70 66 65.1031 66 59.0625V10.9375C66 4.89689 61.3829 0 55.6875 0Z" fill="#F00073"/>
<path d="M33 20.125C37.5375 20.125 38.1562 20.125 40.0125 20.125C41.6625 20.125 42.4875 20.5625 43.1062 20.7813C43.9312 21.2188 44.55 21.4375 45.1687 22.0938C45.7875 22.75 46.2 23.4063 46.4062 24.2813C46.6125 24.9375 46.8187 25.8125 47.025 27.5625C47.025 29.5313 47.025 29.9688 47.025 35C47.025 40.0312 47.025 40.4688 47.025 42.4375C47.025 44.1875 46.6125 45.0625 46.4062 45.7188C45.9937 46.5937 45.7875 47.25 45.1687 47.9062C44.55 48.5625 43.9312 49 43.1062 49.2188C42.4875 49.4375 41.6625 49.6562 40.0125 49.875C38.1562 49.875 37.7437 49.875 33 49.875C28.2562 49.875 27.8437 49.875 25.9875 49.875C24.3375 49.875 23.5125 49.4375 22.8937 49.2188C22.0687 48.7812 21.45 48.5625 20.8312 47.9062C20.2125 47.25 19.8 46.5937 19.5937 45.7188C19.3875 45.0625 19.1812 44.1875 18.975 42.4375C18.975 40.4688 18.975 40.0312 18.975 35C18.975 29.9688 18.975 29.5313 18.975 27.5625C18.975 25.8125 19.3875 24.9375 19.5937 24.2813C20.0062 23.4063 20.2125 22.75 20.8312 22.0938C21.45 21.4375 22.0687 21 22.8937 20.7813C23.5125 20.5625 24.3375 20.3438 25.9875 20.125C27.8437 20.125 28.4625 20.125 33 20.125ZM33 16.8438C28.2562 16.8438 27.8437 16.8438 25.9875 16.8438C24.1312 16.8438 22.8937 17.2813 21.8625 17.7188C20.8312 18.1563 19.8 18.8125 18.7687 19.9063C17.7375 21 17.325 21.875 16.7062 23.1875C16.2937 24.2813 16.0875 25.5938 15.8812 27.5625C15.8812 29.5313 15.8812 30.1875 15.8812 35C15.8812 40.0312 15.8812 40.4688 15.8812 42.4375C15.8812 44.4062 16.2937 45.7188 16.7062 46.8125C17.1187 47.9062 17.7375 49 18.7687 50.0938C19.8 51.1875 20.625 51.625 21.8625 52.2812C22.8937 52.7188 24.1312 52.9375 25.9875 53.1562C27.8437 53.1562 28.4625 53.1562 33 53.1562C37.5375 53.1562 38.1562 53.1562 40.0125 53.1562C41.8687 53.1562 43.1062 52.7188 44.1375 52.2812C45.1687 51.8438 46.2 51.1875 47.2312 50.0938C48.2625 49 48.675 48.125 49.2937 46.8125C49.7062 45.7188 49.9125 44.4062 50.1187 42.4375C50.1187 40.4688 50.1187 39.8125 50.1187 35C50.1187 30.1875 50.1187 29.5313 50.1187 27.5625C50.1187 25.5938 49.7062 24.2813 49.2937 23.1875C48.8812 22.0938 48.2625 21 47.2312 19.9063C46.2 18.8125 45.375 18.375 44.1375 17.7188C43.1062 17.2813 41.8687 17.0625 40.0125 16.8438C38.1562 16.8438 37.7437 16.8438 33 16.8438Z" fill="white"/>
<path d="M33 25.5938C28.05 25.5938 24.1312 29.75 24.1312 35C24.1312 40.25 28.05 44.4062 33 44.4062C37.95 44.4062 41.8687 40.25 41.8687 35C41.8687 29.75 37.95 25.5938 33 25.5938ZM33 41.125C29.9062 41.125 27.225 38.5 27.225 35C27.225 31.7188 29.7 28.875 33 28.875C36.0937 28.875 38.775 31.5 38.775 35C38.775 38.2812 36.0937 41.125 33 41.125Z" fill="white"/>
<path d="M42.075 27.5625C43.2141 27.5625 44.1375 26.5831 44.1375 25.375C44.1375 24.1669 43.2141 23.1875 42.075 23.1875C40.9359 23.1875 40.0125 24.1669 40.0125 25.375C40.0125 26.5831 40.9359 27.5625 42.075 27.5625Z" fill="white"/>
</svg>
