<svg width="67" height="71" viewBox="0 0 67 71" fill="none" xmlns="http://www.w3.org/2000/svg">
<path d="M55.7803 0H10.3297C4.62476 0 0 4.90474 0 10.955V59.1572C0 65.2075 4.62476 70.1122 10.3297 70.1122H55.7803C61.4852 70.1122 66.11 65.2075 66.11 59.1572V10.955C66.11 4.90474 61.4852 0 55.7803 0Z" fill="#0088CC"/>
<path d="M16.7339 34.4171C25.607 30.3172 31.5238 27.6142 34.4843 26.3083C42.9371 22.5797 44.6935 21.932 45.8383 21.9104C46.0901 21.9059 46.6531 21.9721 47.0178 22.2859C47.3257 22.5509 47.4104 22.9088 47.451 23.1601C47.4915 23.4113 47.542 23.9836 47.5019 24.4308C47.0438 29.5351 45.0618 41.9217 44.0534 47.6385C43.6268 50.0575 42.7867 50.8686 41.9733 50.948C40.2058 51.1205 38.8636 49.7092 37.1516 48.519C34.4727 46.6566 32.9593 45.4973 30.359 43.68C27.3539 41.5798 29.302 40.4255 31.0146 38.539C31.4628 38.0453 39.2507 30.5328 39.4014 29.8513C39.4203 29.766 39.4378 29.4483 39.2598 29.2806C39.0818 29.1128 38.8191 29.1702 38.6296 29.2158C38.3609 29.2805 34.0814 32.2803 25.7909 38.2154C24.5762 39.1 23.4759 39.5311 22.4901 39.5085C21.4033 39.4836 19.3128 38.8568 17.7587 38.321C15.8526 37.6639 14.3376 37.3165 14.4696 36.2005C14.5383 35.6192 15.2931 35.0247 16.7339 34.4171Z" fill="white"/>
</svg>
